<svg xmlns="http://www.w3.org/2000/svg" viewBox="0 0 652.801 652.801">
  <path d="M142.8 408h40.8c22.542 0 40.8-18.279 40.8-40.801V326.4c0-22.542-18.258-40.8-40.8-40.8h-40.8c-22.542 0-40.8 18.258-40.8 40.8v40.799C102 389.721 120.258 408 142.8 408zm0-81.6h40.8v40.799h-40.8V326.4zm326.4 244.799H510c22.542 0 40.801-18.258 40.801-40.799v-40.8c0-22.541-18.259-40.799-40.801-40.799h-40.8c-22.521 0-40.8 18.258-40.8 40.799v40.8c0 22.541 18.258 40.799 40.8 40.799zm0-81.599H510v40.8h-40.8v-40.8zm0-81.6H510c22.542 0 40.801-18.279 40.801-40.801V326.4c0-22.542-18.259-40.8-40.801-40.8h-40.8c-22.521 0-40.8 18.258-40.8 40.8v40.799c0 22.522 18.258 40.801 40.8 40.801zm0-81.6H510v40.799h-40.8V326.4zm81.601-285.6H469.2V20.4c0-11.261-9.139-20.4-20.399-20.4s-20.4 9.139-20.4 20.4v20.4h-204V20.4C224.4 9.139 215.261 0 204 0s-20.4 9.139-20.4 20.4v20.4H102c-45.063 0-81.6 36.537-81.6 81.6v448.799c0 45.064 36.537 81.602 81.6 81.602h448.8c45.063 0 81.6-36.537 81.6-81.602V122.4c0-45.064-36.536-81.6-81.599-81.6zm40.8 530.399c0 22.543-18.258 40.801-40.8 40.801H102c-22.542 0-40.8-18.279-40.8-40.801V204h530.4v367.199zm0-407.999H61.2v-40.8c0-22.542 18.258-40.8 40.8-40.8h81.6V102c0 11.261 9.139 20.4 20.4 20.4s20.4-9.139 20.4-20.4V81.6h204V102c0 11.261 9.14 20.4 20.4 20.4s20.4-9.139 20.4-20.4V81.6h81.601c22.542 0 40.8 18.258 40.8 40.8v40.8zM306 571.199h40.8c22.542 0 40.8-18.258 40.8-40.799v-40.8c0-22.541-18.258-40.799-40.8-40.799H306c-22.521 0-40.8 18.258-40.8 40.799v40.8c0 22.541 18.258 40.799 40.8 40.799zm0-81.599h40.8v40.8H306v-40.8zm0-81.6h40.8c22.542 0 40.8-18.279 40.8-40.801V326.4c0-22.542-18.258-40.8-40.8-40.8H306c-22.521 0-40.8 18.258-40.8 40.8v40.799C265.2 389.721 283.458 408 306 408zm0-81.6h40.8v40.799H306V326.4zM142.8 571.199h40.8c22.542 0 40.8-18.258 40.8-40.799v-40.8c0-22.541-18.258-40.799-40.8-40.799h-40.8c-22.542 0-40.8 18.258-40.8 40.799v40.8c0 22.541 18.258 40.799 40.8 40.799zm0-81.599h40.8v40.8h-40.8v-40.8z"/>
</svg>
