<svg xmlns="http://www.w3.org/2000/svg" viewBox="0 0 6 10">
  <path fill-rule="evenodd" fill="#243F4D" d="M.472 9.538a.463.463 0 00.331-.14l4.221-4.265a.08.08 0 01.013-.013c.04-.043.072-.092.095-.144v-.001c.03-.068.045-.143.045-.217v-.002c0-.072-.015-.145-.044-.211v-.001-.001a.5247.5247 0 00-.098-.147.0426.0426 0 00-.011-.012L.803.119C.609-.076.306-.067.123.138.035.237-.008.364-.008.49c0 .136.05.272.149.372l3.857 3.896L.141 8.655c-.099.1-.149.236-.149.371 0 .127.043.254.131.353.095.106.222.159.349.159z"/>
</svg>