<svg xmlns="http://www.w3.org/2000/svg" viewBox="0 0 512 512">
  <path d="M112 504s-10.3019-90.3111 78.44-100.3867h37.9733V386.12s26.7117 11.4733 53.76 1.28l.8534 16.2133H327.4S404.6735 411.3276 400 504H112z" fill="#fff"/>
  <path d="M399.262 505.5867H114.7454h-5.5178l1.3773-23.5298c2.6893-45.9423 38.8869-81.0036 80.31-81.0036h31.525v4.6934h-29.0103c-39.9234 0-74.8104 33.7484-77.4023 77.9703l-.9568 16.323h283.4396l-.5301-16.323c-2.592-44.222-37.479-77.9703-77.4024-77.9703h-38.831v-4.6934h41.0927c41.4231 0 77.6207 35.0613 80.31 81.0036l1.3774 23.5298h-5.2649z" fill="#3b434f"/>
  <path d="M232.68 384.146v26.3152c0 13.6555 11.0795 24.7255 24.7467 24.7255 13.6672 0 24.7466-11.07 24.7466-24.7255V384.689a83.4258 83.4258 0 004.2667-1.4249v27.3762c0 16.1486-13.0852 29.2397-29.2267 29.2397-16.1414 0-29.2266-13.091-29.2266-29.2397v-28.1866c1.5458.6112 3.1115 1.1734 4.6933 1.6924zM227.7733 434.76c1.5317 0 2.7734 1.2416 2.7734 2.7733v41.8133c0 1.5317-1.2417 2.7734-2.7734 2.7734-1.5316 0-2.7733-1.2417-2.7733-2.7734v-41.8133c0-1.5317 1.2417-2.7733 2.7733-2.7733zM286.0133 434.3333c1.6495 0 2.9867 1.3372 2.9867 2.9867v26.0266c0 1.6496-1.3372 2.9867-2.9867 2.9867s-2.9866-1.3371-2.9866-2.9867V437.32c0-1.6495 1.3371-2.9867 2.9866-2.9867z" fill="#3b434f"/>
  <path d="M227.7733 479.1333c.8248 0 1.4934.6686 1.4934 1.4934v10.6666c0 .8248-.6686 1.4934-1.4934 1.4934-.8247 0-1.4933-.6686-1.4933-1.4934v-10.6666c0-.8248.6686-1.4934 1.4933-1.4934zM286.2267 463.3466c.8247 0 1.4933.6687 1.4933 1.4934v10.6667c0 .8247-.6686 1.4933-1.4933 1.4933-.8248 0-1.4934-.6686-1.4934-1.4933V464.84c0-.8247.6686-1.4934 1.4934-1.4934z" fill="#3b434f"/>
  <path d="M211.7655 373.6461l-27.0236 6.2053s-33.093 7.496-11.0763 29.7995c22.0169 22.3036 78.641 26.2424 78.641 26.2424s-14.9713-7.0912-21.3333-17.0666l-2.1333-35.84-17.0745-9.3406z" fill="#f5f3ef"/>
  <path d="M253.16 438.0267c-1.6768 2.1222-48.8266.663-81.4933-27.7334-23.6527-20.5606 11.9466-32.4266 11.9466-32.4266l26.0267-5.9734 22.6133 11.52 1.7067 34.56c9.5195 14.9264 21.8993 16.6368 19.2 20.0534zM229.6933 419.68l-2.56-36.2667-13.6533-7.68-26.0267 6.4s-31.5249 6.4646-11.52 25.1734c21.5893 20.1904 61.5283 25.6089 65.7067 25.1733 4.3308-.4515-2.4272 2.1264-11.9467-12.8z" fill-rule="evenodd" fill="#3b434f"/>
  <path d="M303.0593 374.6514l27.0396 6.2238s33.1126 7.5185 11.0828 29.8888c-22.03 22.3703-78.6877 26.321-78.6877 26.321s14.9803-7.1125 21.346-17.1178l2.1346-35.9473 17.0847-9.3685z" fill="#f5f3ef"/>
  <path d="M261.6402 438.798c1.6778 2.1287 48.8556.665 81.5417-27.8163 23.6666-20.6223-11.9538-32.5238-11.9538-32.5238l-26.042-5.9912-22.6268 11.5544-1.7077 34.6636c-9.525 14.971-21.9123 16.6865-19.2114 20.1133zm23.4806-18.4016l2.5615-36.3753 13.6615-7.703 26.042 6.4192s31.5437 6.484 11.5269 25.2488c-21.6022 20.2509-61.5648 25.6856-65.7456 25.2487-4.3334-.4529 2.4286 2.1327 11.9537-12.8384z" fill-rule="evenodd" fill="#3b434f"/>
  <path d="M259.2147 116.4666c53.0778 0 94.9723 49.6013 93.61 109.1983l-1.4478 63.3412c-1.2833 56.1464-42.5315 100.5272-92.1622 100.5272-49.6308 0-90.879-44.3808-92.1623-100.5272l-1.4478-63.3412c-1.3622-59.597 40.5322-109.1983 93.61-109.1983z" fill="#fff"/>
  <path d="M357.0894 223.7011l-1.517 65.9144c-1.3448 58.4273-44.5661 104.6112-96.571 104.6112-52.005 0-95.2262-46.1839-96.571-104.6112l-1.517-65.9144c-1.4274-62.0182 42.471-113.6345 98.088-113.6345s99.5154 51.6163 98.088 113.6345zm-98.3011-106.8078c-52.3523 0-93.674 49.2137-92.3304 108.3452l1.428 62.8463c1.2658 55.7077 41.9501 99.7419 90.9024 99.7419s89.6365-44.0342 90.9023-99.7419l1.428-62.8463c1.3436-59.1315-39.978-108.3452-92.3303-108.3452z" fill-rule="evenodd" fill="#3b434f"/>
  <path d="M348.5245 326.9249c-1.2622 5.9695-17.847 60.098-14.8463 36.6672 3.0006-23.4308-28.8193 21.2906-28.8193 21.2906-5.8799 6.0416-29.6926 20.1078-29.6926 20.1078v-5.914L257.7 406.1732l-7.8598-7.0969-.8733 7.097c-2.3388-3.4653-49.7788-35.4844-49.7788-35.4844s8.1437 14.4931 1.7467 7.0968a28.0761 28.0761 0 01-.7024-.847c-6.471-8.1043-16.764-28.7233-16.764-28.7233l-1.7465 14.1938c-15.4345-30.0028-14.8463-67.4203-14.8463-67.4203l-2.5956-78.1413h6.9865l2.5956 55.6678 11.353 18.925c7.3413 10.7322 27.0727 5.914 27.0727 5.914 57.0218 39.5651 93.4444-2.3655 93.4444-2.3655s24.7024 5.4816 32.3125 2.3656c7.6101-3.116 8.7088-80.617 8.7088-80.617h6.1132s-3.08 104.2178-4.3422 110.1873zm-40.9513 6.0015c-1.2534-15.0416-10.4064-13.7662-10.4064-13.7662-16.2719 4.7446-29.045 7.3804-39.024 8.72v-.0983c-9.9092-1.3287-22.5928-3.9428-38.7507-8.6486 0 0-9.089-1.265-10.3335 13.6534 0 0-3.6498 11.5333 8.6112 17.92l15.5003 8.5333s10.5925 3.3267 10.3335-9.3867c0 0-1.078-1.8016 5.1668-3.4133h9.4724v.2808h9.5392c6.2889 1.625 5.2032 3.505 5.2032 3.505-.2608 12.8184 10.4064 9.4642 10.4064 9.4642l15.6096-8.6673c12.3474-6.4394 8.672-18.0963 8.672-18.0963z" fill-rule="evenodd" fill="#3b434f"/>
  <path d="M305.08 327.326c-7.7552 6.7338-25.272 13.1406-45.6533 13.1406-20.3814 0-37.8981-6.4068-45.6534-13.1407 0 0-.7934-2.1833.3707-3.3474 1.1857-1.1857 3.0427-.9277 3.0427-.9277 7.747 6.7384 21.8509 12.2959 42.24 12.2959 20.3891 0 34.4929-5.5575 42.24-12.2959 0 0 1.895-.704 2.8156.2167 1.773 1.773.5977 4.0584.5977 4.0584zM245.3467 350.7067h27.3067v4.2666h-27.3067v-4.2666z" fill="#3b434f"/>
  <path d="M160.8072 233.3131c-.0118.0007-1.0476-.8265-3.0036-1.4423-.9776-.3073-2.1926-.56-3.5774-.6224a14.5388 14.5388 0 00-1.066-.0089 14.3436 14.3436 0 00-1.1155.0752c-.7572.0809-1.5393.2263-2.3263.4526-3.1511.9056-6.3657 3.1074-8.2536 7.6518-.9477 2.2723-1.5729 5.1306-1.7382 8.7068-.0413.894-.054 1.833-.0358 2.8189.0181.9859.067 2.0187.1488 3.1005.1635 2.1635.4586 4.5232.8983 7.0944-.0097-.0026-.4101 7.77 2.3685 16.7011 2.6123 8.732 8.8851 19.4584 20.467 22.5236-1.3321-22.1794-1.3735-44.7745-2.7662-67.0513z" fill="#fff"/>
  <path d="M162.1279 234.2073s-20.1764-6.2517-19.4664 14.4908c0 0 3.004 30.0773 4.3084 32.8493 0 0 7.9238 17.512 21.001 18.288 12.781.7586 0 0 0 0l.1587 5.6446s-22.9847-2.947-27.424-29.4346l-3.5039-24.0627s-2.7206-31.8446 23.6695-23.7479c25.7093 7.8879 0 0 0 0l1.2567 5.9725" fill="#3b434f"/>
  <path d="M155.4683 275.9948s-1.1291.8533-2.0991.8533-2.0854-.8533-2.0854-.8533l-2.0822-20.9828s2.8729-10.3334 15.0638-4.8725l.2882 5.9997s-10.6957-3.7932-10.4745.9302c.2129 4.5466 1.3892 18.9254 1.3892 18.9254z" fill="#3b434f"/>
  <path d="M356.8134 233.3621c.0119.0007 1.0522-.826 3.0168-1.4414.9819-.307 2.2022-.5596 3.5931-.6219a14.6834 14.6834 0 011.0707-.0089c.3658.0104.74.0347 1.1203.0751.7605.0809 1.546.2262 2.3365.4524 3.165.905 6.3936 3.1052 8.2898 7.6466.9518 2.2707 1.5797 5.127 1.7457 8.7009.0416.8934.0543 1.8317.036 2.817-.0182.9851-.0673 2.0172-.1495 3.0983-.164 2.162-.4605 4.5201-.9021 7.0896.0096-.0026.4119 7.7647-2.379 16.6898-2.6237 8.726-8.924 19.4452-20.5565 22.5083 1.3378-22.1643 1.3794-44.7441 2.7782-67.0058z" fill="#fff"/>
  <path d="M355.4826 234.2557s20.2648-6.2475 19.5516 14.481c0 0-3.017 30.0568-4.3272 32.8269 0 0-7.9586 17.5002-21.093 18.2757-12.837.758 0 0 0 0l-.1594 5.6407s23.0853-2.945 27.544-29.4146l3.5193-24.0464s2.7326-31.823-23.7731-23.7318c-25.8219 7.8826 0 0 0 0l-1.2622 5.9685" fill="#3b434f"/>
  <path d="M362.1713 276.0148s1.1341.8528 2.1084.8528c.9742 0 2.0945-.8528 2.0945-.8528l2.0913-20.9685s-2.8855-10.3265-15.1298-4.8692l-.2894 5.9956s10.7425-3.7906 10.5204.9296c-.2139 4.5435-1.3954 18.9125-1.3954 18.9125z" fill="#3b434f"/>
  <path d="M266.8933 274.3333h1.4934c3.0874 4.193 4.3435 10.6365 5.9733 16.2134.505 1.7283.015 4.7513-.4267 5.9733-1.6177 4.4755-6.6976 4.3952-10.88 6.4-1.1232.5384-1.9587 1.4678-3.4133 1.7067-.9483-.8353-2.0933-.9994-2.56-2.3467-1.1523-1.5867.3328-2.5776 1.4933-3.2 2.1063-1.1296 8.6082-2.2429 9.3867-4.2667.9632-1.0957.3227-4.3901 0-5.5466-.8266-2.9622-1.2234-5.4352-2.3467-8.1067-.7461-1.7745-2.0561-3.6455-1.28-5.76.6432-.2762 2.0333-.5902 2.56-1.0667z" fill-rule="evenodd" fill="#3b434f"/>
  <path d="M207.8 241.48h5.9733c3.299 0 5.9734 2.6744 5.9734 5.9733 0 3.299-2.6744 5.9734-5.9734 5.9734H207.8c-3.299 0-5.9733-2.6744-5.9733-5.9734s2.6743-5.9733 5.9733-5.9733zM305.08 241.48h5.9733c3.299 0 5.9734 2.6744 5.9734 5.9733 0 3.299-2.6744 5.9734-5.9734 5.9734H305.08c-3.299 0-5.9733-2.6744-5.9733-5.9734s2.6743-5.9733 5.9733-5.9733z" fill="#3b434f"/>
  <path d="M310.6267 269.64c5.891 0 10.6666 4.7756 10.6666 10.6667 0 5.891-4.7756 10.6666-10.6666 10.6666-5.891 0-10.6667-4.7756-10.6667-10.6666 0-5.891 4.7756-10.6667 10.6667-10.6667zM207.3734 269.64c5.891 0 10.6666 4.7756 10.6666 10.6667 0 5.891-4.7756 10.6666-10.6666 10.6666-5.8911 0-10.6667-4.7756-10.6667-10.6666 0-5.891 4.7756-10.6667 10.6667-10.6667z" fill="#edf1f1"/>
  <path d="M351.94 228.8796c-.5773 4.93-1.0843 10.9627-2.1503 16.3563-3.1876 16.1285-17.0463 31.0714-40.7101 32.774-23.6638 1.7027-43.8038-10.2103-44.984-26.6083-.2002-2.7803-.7355-5.9003-1.1463-8.9337-3.3488-1.8566-6.8004-1.8608-10.3547-.0126-.4151 3.102-.9706 6.304-1.1755 9.1509-1.1839 16.4523-21.3875 28.4048-45.1259 26.6965-23.7384-1.7082-37.6408-16.7007-40.8384-32.8827-1.0694-5.4115-1.578-11.4642-2.157-16.4104l-3.4884-.251.49-6.8091.8512.0612 21.5885 1.5536 18.223 1.3113 18.257 1.3138 28.4367 2.0464c1.9612.248 3.2653 1.0891 4.1051 2.3447 4.0839 1.7877 8.0501 1.7949 11.8986.0212.8322-1.3364 2.1539-2.2362 4.1875-2.4933l28.3473-2.0396 18.1996-1.3095 18.1658-1.307 21.5207-1.5484.8484-.061.4885 6.7865-3.4774.2502zm-111.9201 7.3577l-55.7316-4.0106c-7.2892-.6284-9.873 7.5628-10.3222 13.8058-.9471 13.1619 13.7182 24.9423 32.7559 26.3123 19.0377 1.37 35.2387-8.1892 36.1858-21.3511.4493-6.243 2.4884-10.0986-2.888-14.7564zm101.2852 9.609c-.4478-6.2223-3.0234-14.3865-10.2897-13.7601l-55.5564 3.9972c-5.3595 4.6425-3.3267 8.4853-2.8789 14.7077.9442 13.1184 17.0942 22.646 36.072 21.2806 18.978-1.3655 33.5972-13.107 32.653-26.2254z" fill-rule="evenodd" fill="#3b444f"/>
  <path d="M166.017 261.1067s11.8696-51.996 22.1984-66.2187c10.3288-14.2227 19.2669-17.6246 23.906-18.0596 4.6391-.435 41.1718 10.3643 91.355-2.0067 0 0 19.7872-.7897 28.175 19.063 0 0 17.6843 31.6377 20.4908 63.2087h3.4151s7.2372-55.3429 4.269-88.2916c-2.9683-32.9486-46.1044-49.1623-46.1044-49.1623l9.3916-7.0232s-21.9266-6.7782-30.7363-3.0099l6.8303-14.0464s-44.2501.0882-69.1566 20.0663l.8538-10.0332s-87.7899 13.4625-69.1567 153.507l4.269 2.0066z" fill="#3b434f"/>
</svg>