<svg display="none" xmlns="http://www.w3.org/2000/svg" xmlns:xlink="http://www.w3.org/1999/xlink">
	<symbol id="search-header" viewBox="0 0 15.28 15.281">
		<path d="M15.321,14.610 C14.899,15.064 13.327,16.025 11.590,14.318 L9.532,11.968 C8.752,12.313 7.891,12.507 6.983,12.507 C3.515,12.507 0.705,9.705 0.705,6.250 C0.705,2.794 3.512,-0.004 6.980,-0.004 C10.445,-0.004 13.259,2.797 13.259,6.253 C13.259,7.182 13.056,8.065 12.691,8.857 L15.027,10.893 C16.730,12.640 15.773,14.159 15.321,14.610 ZM6.980,1.305 C4.238,1.305 2.015,3.521 2.015,6.253 C2.015,8.985 4.235,11.201 6.980,11.201 C9.722,11.201 11.946,8.985 11.946,6.253 C11.946,3.521 9.722,1.305 6.980,1.305 ZM14.179,11.866 L12.017,9.986 C11.634,10.498 11.175,10.953 10.654,11.326 L12.526,13.513 C12.819,13.837 13.652,14.380 14.407,13.739 C14.616,13.563 15.040,12.671 14.179,11.866 ZM6.494,10.085 C5.683,9.923 4.937,9.535 4.351,8.954 C3.768,8.373 3.378,7.627 3.215,6.818 C3.150,6.464 3.343,6.142 3.702,6.076 C4.058,6.011 4.382,6.207 4.448,6.560 C4.544,7.142 4.803,7.627 5.227,8.049 C5.648,8.438 6.169,8.727 6.721,8.826 C7.046,8.892 7.273,9.216 7.208,9.569 C7.142,9.893 6.849,10.125 6.494,10.085 Z" />
	</symbol>
	<symbol id="cubic-header" viewBox="0 0 20.03 20.031">
		<path d="M2.15 4.287a2.146 2.146 0 112.14-2.145 2.145 2.145 0 01-2.14 2.145zm0 7.869a2.146 2.146 0 112.14-2.147 2.146 2.146 0 01-2.14 2.147zm0 7.868a2.146 2.146 0 112.14-2.146 2.145 2.145 0 01-2.14 2.146zm7.86-15.737a2.146 2.146 0 112.15-2.145 2.143 2.143 0 01-2.15 2.145zm0 7.869a2.146 2.146 0 112.15-2.147 2.144 2.144 0 01-2.15 2.147zm0 7.868a2.146 2.146 0 112.15-2.146 2.143 2.143 0 01-2.15 2.146zm7.87-15.737a2.146 2.146 0 112.15-2.145 2.143 2.143 0 01-2.15 2.145zm0 7.869a2.146 2.146 0 112.15-2.147 2.144 2.144 0 01-2.15 2.147zm0 7.868a2.146 2.146 0 112.15-2.146 2.143 2.143 0 01-2.15 2.146z" />
	</symbol>
	<symbol id="heart-header">
		<path d="M9.913,16.244 C9.818,16.244 9.722,16.226 9.633,16.188 C9.280,16.039 0.983,12.439 0.983,5.429 C1.074,2.779 3.190,0.721 5.801,0.721 C7.544,0.721 9.067,1.639 9.913,3.031 C10.760,1.639 12.282,0.721 14.025,0.721 C16.634,0.721 18.750,2.779 18.842,5.405 C18.842,12.439 10.545,16.039 10.193,16.188 C10.103,16.226 10.008,16.244 9.913,16.244 ZM5.801,2.106 C3.954,2.106 2.458,3.576 2.393,5.452 C2.393,10.860 8.518,14.115 9.913,14.787 C11.308,14.115 17.433,10.857 17.433,5.429 C17.368,3.576 15.870,2.106 14.025,2.106 C12.180,2.106 10.683,3.576 10.617,5.452 C10.605,5.825 10.293,6.121 9.913,6.121 L9.913,6.121 C9.533,6.121 9.221,5.825 9.208,5.452 C9.144,3.576 7.647,2.106 5.801,2.106 Z" />
	</symbol>
	<symbol id="cart-header">
		<path d="M18.936,3.932 L16.813,11.888 C16.744,12.147 16.508,12.328 16.240,12.328 L5.885,12.328 C5.876,12.326 5.868,12.326 5.862,12.328 C4.533,12.329 3.657,12.821 3.182,13.837 C3.082,14.051 2.868,14.178 2.645,14.178 C2.561,14.178 2.476,14.161 2.395,14.122 C2.099,13.984 1.970,13.632 2.109,13.335 C2.688,12.096 3.736,11.362 5.163,11.184 L4.108,5.793 C4.045,5.473 4.254,5.161 4.575,5.098 C4.896,5.032 5.207,5.246 5.271,5.566 L6.362,11.144 L15.785,11.144 L17.592,4.373 L4.314,4.373 C4.306,4.373 4.298,4.373 4.290,4.373 C2.162,4.373 0.321,2.789 0.007,0.680 C-0.042,0.355 0.181,0.054 0.505,0.006 C0.820,-0.049 1.129,0.181 1.178,0.505 C1.407,2.037 2.745,3.187 4.293,3.187 C4.299,3.187 4.305,3.187 4.311,3.187 L18.363,3.187 C18.547,3.187 18.721,3.273 18.833,3.419 C18.945,3.565 18.983,3.755 18.936,3.932 ZM5.527,12.831 C5.529,12.831 5.530,12.831 5.533,12.831 C6.083,12.831 6.602,13.045 6.994,13.433 C7.386,13.827 7.602,14.346 7.602,14.900 C7.604,15.740 7.103,16.493 6.325,16.817 C6.067,16.925 5.795,16.978 5.526,16.978 C4.990,16.978 4.463,16.768 4.065,16.371 C3.468,15.777 3.291,14.891 3.612,14.111 C3.934,13.334 4.686,12.831 5.527,12.831 ZM4.901,15.533 C5.157,15.787 5.538,15.862 5.870,15.724 C6.203,15.585 6.418,15.261 6.417,14.901 C6.417,14.664 6.324,14.441 6.157,14.272 C5.991,14.107 5.768,14.015 5.533,14.015 C5.530,14.015 5.529,14.015 5.529,14.015 C5.167,14.015 4.845,14.230 4.707,14.564 C4.570,14.897 4.645,15.279 4.901,15.533 ZM13.918,12.831 C14.464,12.791 14.998,13.049 15.386,13.434 C15.778,13.827 15.993,14.346 15.993,14.900 C15.996,15.739 15.496,16.493 14.719,16.817 C14.459,16.925 14.187,16.976 13.918,16.978 C13.381,16.978 12.854,16.768 12.457,16.371 C11.860,15.776 11.683,14.891 12.005,14.111 C12.326,13.334 13.077,12.831 13.918,12.831 ZM13.293,15.533 C13.549,15.788 13.931,15.862 14.263,15.724 C14.595,15.585 14.810,15.261 14.809,14.901 C14.809,14.664 14.717,14.441 14.549,14.272 C14.384,14.109 14.157,14.015 13.924,14.015 C13.923,14.015 13.923,14.015 13.923,14.015 C13.592,14.047 13.238,14.230 13.100,14.563 C12.961,14.897 13.037,15.279 13.293,15.533 Z" />
	</symbol>
</svg>
