<svg xmlns="http://www.w3.org/2000/svg" viewBox="0 0 15 11">
  <path fill-rule="evenodd" fill="#FFF" d="M8.931 11.007c.153 0 .305-.052.425-.161l5.434-4.912a.1537.1537 0 00.019-.017.9212.9212 0 00.031-.032v-.001h.001a.57.57 0 00.144-.344.5644.5644 0 00-.006-.13c-.018-.111-.071-.218-.155-.307-.011-.011-.022-.021-.033-.031L9.356.16c-.247-.224-.639-.215-.874.022s-.224.61.024.834l4.311 3.897H.631c-.341 0-.617.264-.617.59 0 .325.276.589.617.589h12.186L8.506 9.99c-.248.223-.259.597-.024.834.122.122.285.183.449.183z"/>
</svg>