<svg xmlns="http://www.w3.org/2000/svg" viewBox="0 0 43 42">
  <path fill-rule="evenodd" fill="#A3BBC8" d="M41.984 8.578L28.765 29.025c.528 1.111.824 2.357.824 3.67 0 4.673-3.743 8.475-8.342 8.475-4.601 0-8.344-3.802-8.344-8.475 0-1.313.296-2.559.825-3.671L.509 8.578c-.232-.36-.184-.835.116-1.139l6.318-6.418c.168-.17.395-.266.631-.266h27.345c.237 0 .464.096.631.266l6.319 6.418c.299.304.346.779.115 1.139zM21.247 39.357c3.615 0 6.557-2.988 6.557-6.662 0-3.672-2.942-6.661-6.557-6.661-3.617 0-6.559 2.989-6.559 6.661 0 3.674 2.942 6.662 6.559 6.662zm.013-15.136l9.849-15.234H11.383l9.85 15.234h.027zm-6.481 3.127c1.128-1.405 2.69-2.436 4.477-2.883L9.247 8.987H2.909l11.87 18.361zm19.77-24.78H7.943L3.41 7.174h35.674l-4.535-4.606zm-1.304 6.419L23.237 24.465c1.787.447 3.349 1.478 4.477 2.884l11.87-18.362h-6.339zm-13.114 20.39h1.419c.492 0 .892.406.892.908v5.808c0 .5-.4.906-.892.906-.493 0-.893-.406-.893-.906v-4.902h-.526c-.492 0-.892-.406-.892-.906 0-.502.4-.908.892-.908z"/>
</svg>
                                                                                                    
                                                                                                    
                                                                                                    
                                                                                                    
                                                                                                    
                                                                                                    
                                                                                                    
                                                                                                    
                                                                                                    
                                                                                                    
                                                                                                    
                                                                                                    
                                                                                                    
                                                                                                    
                                                                                                    
                                                                                                    
                                                                                                    
                                                                                                    
                                                                                                    
                                                                                                    
                           
<?xpacket end="w"?></metadata>
<defs>
    <style>
      .cls-1 {
        fill: #a3bbc8;
        fill-rule: evenodd;
      }
    </style>
  </defs>
  <path class="cls-1" d="M1399.9,951.7a8.516,8.516,0,0,1,.83-3.671l-13.22-20.446a0.919,0.919,0,0,1,.11-1.139l6.32-6.418a0.9,0.9,0,0,1,.63-0.266h27.35a0.882,0.882,0,0,1,.63.266l6.32,6.418a0.906,0.906,0,0,1,.11,1.139l-13.22,20.447a8.508,8.508,0,0,1,.83,3.67A8.346,8.346,0,1,1,1399.9,951.7Zm1.79,0a6.556,6.556,0,1,0,6.56-6.661A6.617,6.617,0,0,0,1401.69,951.7Zm8.55-8.23a8.324,8.324,0,0,1,4.47,2.884l11.87-18.362h-6.34Zm-8.46,2.883a8.354,8.354,0,0,1,4.48-2.883l-10.01-15.478h-6.34Zm6.45-3.127h0.03l9.85-15.234h-19.73Zm-17.82-17.047h35.67l-4.53-4.606h-26.61Zm17.25,28.919v-4.9h-0.53a0.907,0.907,0,0,1,0-1.814h1.42a0.9,0.9,0,0,1,.89.908v5.808A0.89,0.89,0,1,1,1407.66,955.093Z" transform="translate(-1387.34 -919.75)"/>
</svg>
