<svg xmlns="http://www.w3.org/2000/svg" viewBox="0 0 49 64">
  <path fill-rule="evenodd" fill="#243F4D" d="M47.581 22.502c.666 1.102.666 2.472.001 3.575l-1.314 2.174c-.173.287-.24.627-.188.958l.391 2.513c.199 1.279-.321 2.547-1.359 3.309l-2.036 1.495c-.27.198-.461.486-.539.813l-.593 2.473c-.301 1.256-1.262 2.226-2.506 2.529l-.984.241 6.927 15.6c.147.331.107.717-.107 1.009a.9925.9925 0 01-.922.404l-5.572-.672-3.209 4.645a.9956.9956 0 01-.819.432.9657.9657 0 01-.093-.005.9987.9987 0 01-.818-.591l-7.08-15.944-.929.572a3.371 3.371 0 01-1.77.503c-.613 0-1.225-.167-1.771-.503l-.896-.552-7.071 15.924c-.148.331-.46.557-.818.591a.9865.9865 0 01-.094.005c-.324 0-.631-.16-.818-.432l-3.21-4.645-5.571.672a.9942.9942 0 01-.923-.404 1.0156 1.0156 0 01-.107-1.009l6.924-15.591-1.023-.25c-1.244-.304-2.204-1.274-2.505-2.53l-.593-2.473c-.078-.327-.27-.615-.539-.813l-2.036-1.494C1.974 34.269 1.453 33 1.652 31.72l.392-2.511c.052-.331-.015-.671-.188-.958L.542 26.077c-.666-1.103-.666-2.473 0-3.575l1.314-2.175c.173-.286.24-.626.188-.958l-.391-2.512c-.2-1.28.321-2.548 1.359-3.31l2.036-1.495c.269-.197.46-.486.539-.812l.593-2.474c.301-1.256 1.261-2.225 2.505-2.529l2.45-.599c.324-.079.61-.272.806-.543l1.48-2.056c.755-1.047 2.012-1.573 3.279-1.371l2.488.395c.329.052.666-.016.949-.19L22.291.547c1.092-.672 2.449-.673 3.541 0l2.155 1.326c.283.175.621.242.949.19l2.488-.395c1.268-.202 2.524.325 3.279 1.372l1.481 2.055c.196.272.482.465.805.544l2.45.599c1.245.304 2.205 1.273 2.506 2.529l.593 2.474c.078.326.269.614.538.812l2.036 1.495c1.038.762 1.559 2.03 1.359 3.31l-.391 2.511c-.052.332.015.672.188.958l1.313 2.175zM34.942 60.955l2.543-3.681a.9943.9943 0 01.938-.425l4.415.533-6.319-14.229c-.128.09-.243.201-.336.331l-1.481 2.055c-.132.184-.281.35-.442.501l3.333 7.506c.226.507.001 1.104-.502 1.332a.987.987 0 01-.408.088c-.381 0-.745-.222-.912-.596l-3.311-7.456c-.338.051-.687.052-1.037-.003l-2.487-.395a1.3952 1.3952 0 00-.408-.004l6.414 14.443zM5.327 57.382l4.415-.533c.366-.044.726.119.937.425l2.544 3.681 6.411-14.437a1.3681 1.3681 0 00-.447-.003l-2.488.395c-.337.054-.672.055-.997.01l-3.309 7.45a.9981.9981 0 01-.912.596.9838.9838 0 01-.407-.089c-.504-.227-.729-.824-.503-1.331l3.32-7.478c-.172-.157-.33-.334-.471-.53l-1.481-2.055a1.4054 1.4054 0 00-.304-.307L5.327 57.382zm40.549-33.831l-1.313-2.174a3.4667 3.4667 0 01-.456-2.321l.392-2.511c.082-.529-.133-1.053-.561-1.367l-2.036-1.495c-.652-.478-1.116-1.178-1.305-1.969l-.593-2.473c-.124-.519-.521-.919-1.034-1.044l-2.45-.599c-.784-.191-1.476-.659-1.951-1.317l-1.481-2.056c-.311-.432-.83-.649-1.353-.566l-2.489.395a3.3742 3.3742 0 01-2.299-.46l-2.155-1.326c-.45-.278-1.01-.278-1.461 0l-2.154 1.326c-.688.423-1.504.586-2.3.46l-2.487-.395c-.524-.084-1.042.134-1.354.566L13.555 6.28c-.474.658-1.166 1.126-1.95 1.318l-2.45.598c-.514.126-.91.525-1.035 1.044l-.593 2.473c-.189.791-.653 1.49-1.304 1.969l-2.037 1.495c-.428.315-.643.838-.561 1.367l.392 2.512c.125.802-.037 1.627-.456 2.32l-1.314 2.175a1.4235 1.4235 0 000 1.476l1.314 2.174c.419.694.58 1.519.455 2.321l-.391 2.512c-.082.528.132 1.052.561 1.366l2.035 1.495a3.4362 3.4362 0 011.305 1.969l.593 2.473c.125.519.521.919 1.035 1.044l2.45.599c.783.192 1.476.66 1.95 1.317l1.481 2.056c.312.432.83.649 1.354.566l2.488-.395c.175-.028.352-.042.528-.042.621 0 1.236.172 1.771.502l2.155 1.326c.45.278 1.011.278 1.462 0l2.154-1.326a3.3797 3.3797 0 012.299-.46l2.488.395c.523.084 1.042-.133 1.353-.566l1.481-2.055c.474-.658 1.167-1.126 1.951-1.317l2.45-.599c.513-.125.91-.525 1.034-1.044l.593-2.473c.19-.791.653-1.49 1.305-1.969l2.036-1.495c.429-.315.644-.838.561-1.366l-.391-2.512c-.125-.803.037-1.627.456-2.321l1.313-2.175c.275-.455.275-1.021 0-1.476zM36.77 37.145c-3.496 3.53-8.125 5.33-12.771 5.33-3.887 0-7.787-1.26-11.047-3.82-.435-.343-.513-.976-.174-1.415a.992.992 0 011.401-.176c6.363 4.999 15.468 4.421 21.179-1.344 4.913-4.959 6.111-12.494 2.982-18.75-.249-.497-.051-1.103.441-1.353.492-.251 1.093-.052 1.341.445 3.519 7.034 2.172 15.507-3.352 21.083zm.025-23.247a.9952.9952 0 01-.749-.34c-.22-.252-.452-.5-.688-.739-.236-.238-.482-.472-.732-.694-.413-.369-.452-1.006-.086-1.423.365-.417.996-.457 1.409-.088.28.25.556.512.821.78.265.268.525.546.773.829.365.417.326 1.054-.087 1.423a.9913.9913 0 01-.661.252zm-1.05 7.255c.22.684.032 1.412-.491 1.9l-4.441 4.146 1.179 5.991c.138.705-.133 1.405-.71 1.828-.576.423-1.32.467-1.941.116l-5.279-2.983-5.28 2.983c-.278.157-.581.235-.883.235-.371 0-.74-.118-1.058-.351-.577-.423-.848-1.123-.71-1.828l1.179-5.991-4.441-4.146c-.523-.488-.711-1.216-.491-1.9.22-.683.796-1.161 1.503-1.246l6.008-.719 2.534-5.546c.299-.652.926-1.058 1.639-1.058.712 0 1.34.406 1.638 1.058l2.534 5.546 6.008.719c.707.085 1.283.563 1.503 1.246zm-8.301-.03a.9974.9974 0 01-.789-.578l-2.593-5.675-2.593 5.675c-.146.318-.445.537-.79.578l-6.148.736 4.545 4.243c.255.239.37.593.302.937l-1.207 6.13 5.403-3.053a.993.993 0 01.975 0l5.403 3.053-1.207-6.13c-.067-.343.047-.698.302-.937l4.545-4.243-6.148-.736zm3.805-11.312c-6.198-3.161-13.663-1.952-18.577 3.008-5.711 5.765-6.283 14.957-1.331 21.38.339.439.26 1.073-.175 1.415a.9874.9874 0 01-.612.212.9916.9916 0 01-.789-.389c-5.569-7.224-4.927-17.561 1.495-24.043 5.525-5.578 13.92-6.937 20.889-3.382.493.251.69.857.441 1.354-.248.497-.849.696-1.341.445z"/>
</svg>
