<svg xmlns="http://www.w3.org/2000/svg" viewBox="0 0 64 40">
  <path fill-rule="evenodd" fill="#243F4D" d="M41.62 27.459c.553 0 1.002.443 1.002.99 0 .547-.449.99-1.002.99H26.655c-.553 0-1.002-.443-1.002-.99 0-.547.449-.99 1.002-.99H41.62zM24.518 20.99c-.257 0-.513-.097-.709-.29l-5.344-5.281a.9803.9803 0 010-1.4c.391-.386 1.025-.386 1.417 0l4.636 4.58 8.911-8.804c.391-.387 1.026-.387 1.417 0a.9803.9803 0 010 1.4l-9.62 9.505c-.195.193-.452.29-.708.29zm38.48 12.673h-3.276c.001.022.002.044.002.066 0 3.458-2.847 6.27-6.346 6.27-3.5 0-6.347-2.812-6.347-6.27 0-.022.002-.044.002-.066H24.449c0 .022.002.044.002.066 0 3.458-2.847 6.27-6.347 6.27-3.499 0-6.346-2.812-6.346-6.27 0-.022.001-.044.002-.066H6.347c-1.142 0-2.071-.918-2.071-2.046v-2.179H1.002c-.553 0-1.002-.443-1.002-.99 0-.547.449-.99 1.002-.99h9.62c.554 0 1.002.443 1.002.99 0 .547-.449.99-1.002.99H6.28v2.179c0 .036.03.066.066.066h5.761c.86-2.456 3.223-4.225 5.997-4.225 2.775 0 5.137 1.769 5.998 4.225h20.791v-7.459c0-.547.449-.99 1.002-.99.554 0 1.002.443 1.002.99v7.459h.483c.86-2.456 3.223-4.224 5.998-4.224 2.774 0 5.137 1.768 5.997 4.224h2.621v-4.356H60.86c-1.732 0-3.14-1.392-3.14-3.103v-2.112c0-.547.449-.99 1.002-.99h3.116c-.424-1.3-1.659-2.243-3.114-2.244H46.898V20c0 .547-.449.99-1.003.99-.553 0-1.002-.443-1.002-.99V2.046a.066.066 0 00-.066-.066H6.346a.066.066 0 00-.066.066V20c0 .547-.449.99-1.002.99-.554 0-1.003-.443-1.003-.99V2.046C4.275.918 5.204 0 6.346 0h38.481c1.142 0 2.071.918 2.071 2.046v2.178h7.549c2.32 0 4.208 1.866 4.208 4.159v1.056c0 .476-.34.873-.793.968l1.658 6.55c2.533.381 4.48 2.547 4.48 5.155v10.561c0 .547-.449.99-1.002.99zm-44.894-4.224c-2.394 0-4.342 1.924-4.342 4.29s1.948 4.291 4.342 4.291c2.395 0 4.343-1.925 4.343-4.291 0-2.366-1.948-4.29-4.343-4.29zm35.274 0c-2.395 0-4.343 1.924-4.343 4.29s1.948 4.291 4.343 4.291c2.394 0 4.342-1.925 4.342-4.291 0-2.366-1.948-4.29-4.342-4.29zm3.273-21.056c0-1.201-.989-2.179-2.204-2.179h-7.549v2.245h9.753v-.066zm-.849 2.046h-8.904v6.469h10.541l-1.637-6.469zm6.194 12.673h-2.272v1.122c0 .619.51 1.122 1.136 1.122h1.136v-2.244zm-8.618 12.674c-1.142 0-2.071-.918-2.071-2.047 0-1.128.929-2.046 2.071-2.046 1.142 0 2.071.918 2.071 2.046 0 1.129-.929 2.047-2.071 2.047zm-35.274 0c-1.142 0-2.071-.918-2.071-2.047 0-1.128.929-2.046 2.071-2.046 1.142 0 2.071.918 2.071 2.046 0 1.129-.929 2.047-2.071 2.047zm-1.135-11.552c0 .547-.449.99-1.002.99H3.14c-.554 0-1.002-.443-1.002-.99 0-.547.448-.99 1.002-.99h12.827c.553 0 1.002.443 1.002.99z"/>
</svg>
