<svg xmlns="http://www.w3.org/2000/svg" viewBox="0 0 23 15">
  <path fill-rule="evenodd" fill="#888" d="M22.691 6.395v.069l-.014 1.816-.001.076H20.17l-.018 2.431-.001.069H18.19v-.069l.019-2.431h-2.507l.001-.076.014-1.816v-.069h2.507l.018-2.437.001-.07H20.204l-.001.07-.018 2.437H22.691zm-13.584 8.28c-.638.165-1.286.246-1.939.246-.139 0-.278-.004-.417-.011-1.409-.083-2.689-.525-3.823-1.361C1.466 12.472.545 11.036.158 9.261.017 8.618-.033 7.976.02 7.327.122 5.794.657 4.42 1.64 3.226 2.658 1.975 3.955 1.161 5.505.768c.394-.104.789-.167 1.19-.187.227-.007.455-.021.683-.021 1.215.014 2.353.318 3.398.932.701.401 1.098.808 1.269.932-.716.705-1.404 1.395-2.107 2.086-.522-.449-1.099-.863-2.099-1.015-.207-.03-.412-.045-.613-.045-2.007 0-3.688 1.451-4.136 3.353-.107.427-.137.863-.1 1.298.153 1.768 1.336 3.218 2.935 3.736.407.128.829.189 1.254.189.099 0 .198-.003.298-.009.753-.049 1.458-.249 2.098-.671 1.075-.732 1.423-1.878 1.425-2.162H7.154c0-.094.014-1.891.021-2.768l.007-.117h6.754c.364 2.106.036 4.322-1.275 6.055-.907 1.195-2.114 1.948-3.554 2.321z"/>
</svg>