<svg xmlns="http://www.w3.org/2000/svg" viewBox="0 0 18 18">
  <path fill-rule="evenodd" fill="#888" d="M16.908 14.123c-.533 1.961-1.813 3.121-3.797 3.439-.742.119-2.745.191-4.744.191-2.047 0-4.091-.075-4.779-.253-1.95-.505-3.114-1.775-3.424-3.75-.231-1.451-.255-8.191.164-9.654C.874 2.189 2.147 1.071 4.075.753 4.949.61 6.658.559 8.385.559c1.605 0 3.224.045 4.199.097 1.18.063 2.261.442 3.139 1.285.836.801 1.264 1.802 1.372 2.935.128 1.353.211 7.748-.187 9.247zm-1.361-9.102c-.154-1.513-1.079-2.507-2.575-2.742-.741-.112-2.525-.162-4.3-.162-1.712 0-3.416.046-4.166.127-1.5.173-2.508 1.099-2.747 2.59-.247 1.582-.245 7.493-.06 8.681.191 1.236.889 2.085 2.122 2.43.668.188 2.666.255 4.626.255 1.803 0 3.575-.057 4.24-.13 1.514-.165 2.515-1.098 2.754-2.603.247-1.513.247-7.03.106-8.446zm-2.338.594c-.573-.007-1.025-.47-1.021-1.036.004-.569.463-1.029 1.031-1.029h.012c.567 0 1.026.463 1.021 1.036-.004.566-.47 1.029-1.043 1.029zM8.563 13.57c-2.438 0-4.391-1.975-4.372-4.413C4.21 6.72 6.2 4.745 8.637 4.751c2.431 0 4.391 1.976 4.372 4.413-.018 2.431-2.009 4.406-4.446 4.406zm.083-7.265H8.62c-1.563 0-2.849 1.259-2.876 2.825-.025 1.574 1.229 2.866 2.803 2.879l.026.001c1.562 0 2.85-1.259 2.876-2.825.025-1.582-1.229-2.866-2.803-2.88z"/>
</svg>