<svg xmlns="http://www.w3.org/2000/svg" viewBox="0 0 44 40">
  <path fill-rule="evenodd" fill="#A3BBC8" d="M37.869 21.953v7.126c0 .785-.393 1.49-1.051 1.887-.337.203-.709.304-1.081.304-.358 0-.717-.094-1.046-.283-5.96-3.423-12.407-5.52-19.185-6.244l4.159 11.785c.235.663.14 1.406-.255 1.986-.395.579-1.042.925-1.731.925h-4.858c-.885 0-1.683-.574-1.986-1.428l-4.84-13.723c-1.032-.468-1.782-1.471-1.919-2.664H2.715c-1.489 0-2.701-1.244-2.701-2.774v-6.096c0-1.529 1.212-2.774 2.701-2.774h1.361c.19-1.658 1.566-2.949 3.231-2.949 0 0 6.628-.03 6.684-.034 7.333-.558 14.298-2.706 20.7-6.383.671-.386 1.466-.377 2.127.021.658.397 1.052 1.102 1.052 1.887v7.126c2.964.394 5.262 3.002 5.262 6.152 0 3.151-2.298 5.759-5.263 6.153zM4.052 12.12H2.715c-.34 0-.618.285-.618.634v6.096c0 .35.278.634.618.634h1.337V12.12zm8.925-2.949h-5.67c-.646 0-1.171.54-1.171 1.203V21.23c0 .489.285.91.693 1.098.151.066.195.077.403.101.025.002 5.745.004 5.745.004V9.171zm.252 15.402H8.31l4.484 12.708c.003.01.015.018.027.018h4.858c.009 0 .015 0 .024-.013.01-.013.007-.019.004-.028l-4.478-12.685zM35.786 2.522c0-.016 0-.028-.022-.041-.026-.016-.043-.007-.056 0-6.403 3.678-13.345 5.885-20.648 6.571V22.55c7.303.684 14.245 2.892 20.648 6.57.013.007.029.016.056 0 .022-.013.022-.026.022-.041V2.522zm2.084 9.291v7.974c1.81-.373 3.179-2.019 3.179-3.987s-1.369-3.614-3.179-3.987z"/>
</svg>
                                                                                                    
                                                                                                    
                                                                                                    
                                                                                                    
                                                                                                    
                                                                                                    
                                                                                                    
                                                                                                    
                                                                                                    
                                                                                                    
                                                                                                    
                                                                                                    
                                                                                                    
                                                                                                    
                                                                                                    
                                                                                                    
                                                                                                    
                                                                                                    
                                                                                                    
                                                                                                    
                           
<?xpacket end="w"?></metadata>
<defs>
    <style>
      .cls-1 {
        fill: #a3bbc8;
        fill-rule: evenodd;
      }
    </style>
  </defs>
  <path class="cls-1" d="M1227.87,929.648v-7.126a2.174,2.174,0,0,0-1.05-1.887,2.076,2.076,0,0,0-2.13-.021,48.669,48.669,0,0,1-20.7,6.383c-0.06,0-6.68.034-6.68,0.034a3.286,3.286,0,0,0-3.23,2.949h-1.36a2.749,2.749,0,0,0-2.71,2.774v6.1a2.748,2.748,0,0,0,2.71,2.774h1.36a3.32,3.32,0,0,0,1.91,2.664l4.85,13.723a2.118,2.118,0,0,0,1.98,1.428h4.86a2.1,2.1,0,0,0,1.73-.925,2.221,2.221,0,0,0,.25-1.986l-4.15-11.785a48.668,48.668,0,0,1,19.18,6.244,2.08,2.08,0,0,0,2.13-.021,2.174,2.174,0,0,0,1.05-1.887v-7.126A6.228,6.228,0,0,0,1227.87,929.648Zm-33.82,9.836h-1.33a0.622,0.622,0,0,1-.62-0.634v-6.1a0.623,0.623,0,0,1,.62-0.634h1.33v7.364Zm2.78,2.844a1.2,1.2,0,0,1-.69-1.1V930.374h0a1.185,1.185,0,0,1,1.17-1.2h5.67v13.262s-5.72,0-5.75,0A1.027,1.027,0,0,1,1196.83,942.328Zm10.88,14.93a0.037,0.037,0,0,1-.01.028c-0.01.013-.01,0.013-0.02,0.013h-4.86a0.049,0.049,0,0,1-.03-0.018l-4.48-12.708h4.92Zm18.08-8.179a0.037,0.037,0,0,1-.03.041,0.04,0.04,0,0,1-.05,0,50.66,50.66,0,0,0-20.65-6.57v-13.5a50.692,50.692,0,0,0,20.65-6.571,0.04,0.04,0,0,1,.05,0,0.037,0.037,0,0,1,.03.041v26.557Zm2.08-9.292v-7.974A4.089,4.089,0,0,1,1227.87,939.787Z" transform="translate(-1190 -920.344)"/>
</svg>
