<svg xmlns="http://www.w3.org/2000/svg" viewBox="0 0 37 38">
  <path fill-rule="evenodd" fill="#A3BBC8" d="M35.489 11.992l-17.485 17.64a.9144.9144 0 01-.396.234s-5.692 1.593-5.697 1.595c-.028.007-.226.029-.226.029H7.059c-.497 0-.901-.408-.901-.911 0-.502.404-.909.901-.909h3.94l1.394-5.066a.9067.9067 0 01.231-.4l.014-.015H7.059c-.497 0-.901-.407-.901-.91 0-.503.404-.91.901-.91h7.384l5.432-5.48H7.059c-.497 0-.901-.408-.901-.91 0-.504.404-.911.901-.911H21.68l8.429-8.503c1.19-1.202 3.128-1.202 4.318 0l1.062 1.071c1.191 1.2 1.191 3.155 0 4.356zM13.718 26.595l-.736 2.677 2.652-.744-1.916-1.933zm15.254-16.308L14.538 24.848l2.827 2.853L31.8 13.139l-2.828-2.852zm5.24-1.364L33.15 7.852a1.2349 1.2349 0 00-.882-.369c-.32 0-.64.123-.884.369l-1.136 1.147 2.828 2.853 1.136-1.147c.487-.492.487-1.291 0-1.782zm-5.67-2.91c-.498 0-.902-.408-.902-.91V2.23c0-.094-.076-.17-.168-.17H9.284v5.552c0 1.097-.886 1.99-1.974 1.99H1.807v26.367c0 .093.076.17.168.17h25.497c.092 0 .168-.077.168-.17V22.067c0-.502.404-.91.902-.91s.902.408.902.91v13.902c0 1.098-.884 1.991-1.973 1.991H1.975c-1.088 0-1.973-.893-1.973-1.991V8.691c0-.241.095-.472.264-.643L7.742.506c.17-.171.399-.267.639-.267h19.091c1.088 0 1.972.893 1.972 1.991v2.873c0 .502-.404.91-.902.91zM7.478 3.347L3.083 7.782H7.31c.092 0 .168-.077.168-.17V3.347z"/>
</svg>
                                                                                                    
                                                                                                    
                                                                                                    
                                                                                                    
                                                                                                    
                                                                                                    
                                                                                                    
                                                                                                    
                                                                                                    
                                                                                                    
                                                                                                    
                                                                                                    
                                                                                                    
                                                                                                    
                                                                                                    
                                                                                                    
                                                                                                    
                                                                                                    
                                                                                                    
                                                                                                    
                           
<?xpacket end="w"?></metadata>
<defs>
    <style>
      .cls-1 {
        fill: #a3bbc8;
        fill-rule: evenodd;
      }
    </style>
  </defs>
  <path class="cls-1" d="M993.975,958.96A1.984,1.984,0,0,1,992,956.969V929.691a0.915,0.915,0,0,1,.264-0.643l7.476-7.542a0.9,0.9,0,0,1,.638-0.267h19.09a1.98,1.98,0,0,1,1.97,1.991V926.1a0.9,0.9,0,1,1-1.8,0V923.23a0.172,0.172,0,0,0-.17-0.17h-18.19v5.552a1.98,1.98,0,0,1-1.97,1.99h-5.5v26.367a0.17,0.17,0,0,0,.168.17h25.5a0.173,0.173,0,0,0,.17-0.17v-13.9a0.9,0.9,0,1,1,1.8,0v13.9a1.98,1.98,0,0,1-1.97,1.991h-25.5Zm1.108-30.178h4.227a0.17,0.17,0,0,0,.168-0.17v-4.265Zm3.976,23.708a0.91,0.91,0,0,1,0-1.82H1003l1.39-5.066a0.9,0.9,0,0,1,.23-0.4l0.02-.015h-5.581a0.91,0.91,0,0,1,0-1.82h7.381l5.43-5.48H999.059a0.911,0.911,0,0,1,0-1.821h14.621l8.43-8.5a3.038,3.038,0,0,1,4.32,0l1.06,1.071a3.1,3.1,0,0,1,0,4.356L1010,950.632a0.889,0.889,0,0,1-.39.234l-5.7,1.6c-0.03.007-.23,0.029-0.23,0.029h-4.621Zm5.921-2.218,2.65-.744-1.91-1.933Zm1.56-4.424,2.83,2.853,14.43-14.562-2.83-2.852Zm16.84-17L1022.25,930l2.83,2.853,1.13-1.147a1.264,1.264,0,0,0,0-1.782l-1.06-1.071a1.225,1.225,0,0,0-.88-0.369A1.265,1.265,0,0,0,1023.38,928.852Z" transform="translate(-992 -921.25)"/>
</svg>
