<svg xmlns="http://www.w3.org/2000/svg" viewBox="0 0 64 57">
  <path fill-rule="evenodd" fill="#243F4D" d="M60.635 47.856H38.943l.877 7h3.634c.593 0 1.074.48 1.074 1.072 0 .592-.481 1.072-1.074 1.072H20.546c-.593 0-1.074-.48-1.074-1.072 0-.592.481-1.072 1.074-1.072h3.633l.877-7H3.365C1.509 47.856 0 46.351 0 44.499V3.357C0 1.506 1.509 0 3.365 0h57.27C62.491 0 64 1.506 64 3.357v41.142c0 1.852-1.509 3.357-3.365 3.357zm-22.979 7.001l-.877-7h-9.558l-.877 7h11.312zm24.196-51.5c0-.67-.546-1.215-1.217-1.215H3.365c-.672 0-1.217.545-1.217 1.215v41.142c0 .67.545 1.215 1.217 1.215h57.27c.671 0 1.217-.545 1.217-1.215V3.357zm-3.508 38.785H13.673c-.593 0-1.074-.479-1.074-1.071S13.08 40 13.673 40h43.598V6.714h-2.363c-.593 0-1.074-.48-1.074-1.071 0-.592.481-1.072 1.074-1.072h3.436c.593 0 1.074.48 1.074 1.072v35.428c0 .592-.481 1.071-1.074 1.071zM52.546 20.5v16c0 .591-.481 1.071-1.074 1.071-.593 0-1.074-.48-1.074-1.071v-16c0-.592.481-1.072 1.074-1.072.593 0 1.074.48 1.074 1.072zM39.564 34.214V36.5c0 .591-.48 1.071-1.073 1.071-.594 0-1.074-.48-1.074-1.071v-2.286c0-.592.481-1.072 1.074-1.072.593 0 1.073.48 1.073 1.072zm-12.981-6.857V36.5c0 .591-.481 1.071-1.074 1.071-.593 0-1.074-.48-1.074-1.071v-9.143c0-.592.481-1.072 1.074-1.072.593 0 1.074.48 1.074 1.072zm28.253-13.714c0 1.851-1.509 3.357-3.364 3.357-.503 0-.98-.112-1.408-.31l-8.604 9.09c.252.47.395 1.007.395 1.577 0 1.851-1.509 3.357-3.364 3.357-1.856 0-3.365-1.506-3.365-3.357 0-.185.016-.365.044-.542l-7.348-3.881c-.603.571-1.417.923-2.313.923-.554 0-1.077-.136-1.539-.374l-8.406 8.141c.21.439.329.929.329 1.447 0 1.851-1.51 3.357-3.365 3.357-1.855 0-3.365-1.506-3.365-3.357 0-1.851 1.51-3.357 3.365-3.357.554 0 1.077.136 1.539.373l8.406-8.141c-.21-.438-.328-.929-.328-1.446 0-1.851 1.509-3.358 3.364-3.358s3.365 1.507 3.365 3.358c0 .184-.016.365-.045.541l7.348 3.882c.604-.572 1.418-.924 2.314-.924.502 0 .979.112 1.408.31l8.603-9.09a3.3413 3.3413 0 01-.395-1.576c0-1.852 1.51-3.358 3.365-3.358 1.855 0 3.364 1.506 3.364 3.358zM12.528 31.857c-.671 0-1.217.544-1.217 1.214 0 .67.546 1.214 1.217 1.214s1.217-.544 1.217-1.214c0-.67-.546-1.214-1.217-1.214zm12.981-12.571c-.671 0-1.217.544-1.217 1.214 0 .669.546 1.214 1.217 1.214s1.217-.545 1.217-1.214c0-.67-.546-1.214-1.217-1.214zm12.982 6.856c-.672 0-1.217.545-1.217 1.215 0 .669.545 1.214 1.217 1.214.671 0 1.217-.545 1.217-1.214 0-.67-.546-1.215-1.217-1.215zm12.981-13.714c-.671 0-1.217.545-1.217 1.215 0 .669.546 1.214 1.217 1.214s1.217-.545 1.217-1.214c0-.67-.546-1.215-1.217-1.215zm-1.145-5.714H6.729V40h2.363c.593 0 1.074.48 1.074 1.071 0 .592-.481 1.071-1.074 1.071H5.655c-.593 0-1.073-.479-1.073-1.071V5.643c0-.592.48-1.072 1.073-1.072h44.672c.593 0 1.073.48 1.073 1.071 0 .592-.48 1.072-1.073 1.072z"/>
</svg>
