<svg xmlns="http://www.w3.org/2000/svg" viewBox="0 0 67 64">
  <path fill-rule="evenodd" fill="#243F4D" d="M58.493 37.654c-.185 0-.371-.046-.542-.144l-2.005-1.145c-.519-.296-.696-.953-.397-1.467.3-.513.963-.689 1.482-.393l2.005 1.146c.519.296.697.953.397 1.466-.201.345-.565.537-.94.537zm-1.461-19.615c-.171.098-.358.144-.542.144-.375 0-.74-.192-.941-.537-.299-.514-.122-1.17.397-1.467l2.005-1.145c.519-.297 1.183-.121 1.482.393.3.513.122 1.17-.397 1.467l-2.004 1.145zm5.338 8.233c0 .593-.486 1.074-1.085 1.074H58.97c-.599 0-1.085-.481-1.085-1.074 0-.593.486-1.074 1.085-1.074h2.315c.599 0 1.085.481 1.085 1.074zm-3.411 18.837l2.113-.418c.588-.116 1.159.261 1.277.842.118.582-.263 1.147-.851 1.264l-5.787 1.145a1.0944 1.0944 0 01-.981-.293 1.0683 1.0683 0 01-.296-.97l1.157-5.727c.118-.582.689-.959 1.277-.843.588.116.969.682.851 1.264l-.483 2.393c4.845-4.549 7.594-10.831 7.594-17.494 0-13.303-10.937-24.125-24.379-24.125-7.923 0-15.38 3.833-19.948 10.252-.345.485-1.022.601-1.512.26-.49-.342-.608-1.012-.262-1.496C23.702 4.173 31.823-.001 40.45-.001 55.09-.001 67 11.786 67 26.272c0 7.151-2.906 13.901-8.041 18.837zM24.411 18.183c-.184 0-.371-.046-.542-.144l-2.004-1.146c-.519-.296-.697-.953-.397-1.466.299-.514.963-.69 1.482-.393l2.005 1.145c.519.296.696.953.397 1.467-.201.344-.566.537-.941.537zm.544 18.182l-2.005 1.146c-.171.098-.358.144-.542.144-.375 0-.739-.193-.94-.537-.3-.514-.122-1.171.397-1.467l2.004-1.146c.519-.296 1.183-.12 1.483.393.299.514.122 1.171-.397 1.467zm6.778 4.848c.519.297.697.953.397 1.467l-1.157 1.984c-.201.344-.566.537-.941.537-.184 0-.371-.047-.541-.144-.519-.297-.697-.953-.398-1.467l1.158-1.984c.3-.513.963-.689 1.482-.393zm-.541-29.738c-.375 0-.74-.192-.941-.537l-1.157-1.984c-.3-.513-.122-1.17.397-1.466.519-.297 1.182-.121 1.482.392l1.157 1.984c.3.514.122 1.171-.397 1.467-.171.098-.357.144-.541.144zm8.029 11.034c0 3.627-2.959 5.225-5.337 6.509-1.927 1.04-3.263 1.822-3.735 3.053h7.987c.599 0 1.085.48 1.085 1.074 0 .592-.486 1.073-1.086 1.073h-9.259c-.6 0-1.086-.481-1.086-1.073 0-3.283 2.685-4.733 5.054-6.012 2.617-1.414 4.206-2.43 4.206-4.624 0-1.754-1.59-3.181-3.544-3.181-1.955 0-3.545 1.427-3.545 3.181 0 .593-.486 1.074-1.085 1.074-.6 0-1.085-.481-1.085-1.074 0-2.938 2.563-5.329 5.715-5.329 3.151 0 5.715 2.391 5.715 5.329zM50.65 41.606l1.157 1.984c.3.514.122 1.17-.397 1.467-.171.098-.357.144-.541.144-.375 0-.74-.193-.941-.537l-1.157-1.984c-.3-.514-.122-1.17.397-1.467.519-.296 1.182-.12 1.482.393zM39.365 7.946V5.655c0-.593.486-1.074 1.085-1.074.6 0 1.085.481 1.086 1.074v2.291c0 .593-.486 1.074-1.086 1.074-.599 0-1.085-.481-1.085-1.074zm10.344 3.529c-.184 0-.37-.046-.541-.144-.519-.296-.697-.953-.397-1.467l1.157-1.984c.3-.513.963-.689 1.482-.393.519.297.697.954.398 1.467l-1.158 1.984c-.201.344-.566.537-.941.537zm3.401 17.088c0 .593-.486 1.074-1.085 1.074h-1.23v3.508c0 .593-.486 1.073-1.085 1.073s-1.085-.481-1.085-1.073v-3.508h-7.017c-.329 0-.641-.148-.847-.402a1.0668 1.0668 0 01-.213-.905l2.315-10.309c.13-.578.71-.944 1.295-.815.585.128.954.703.824 1.281l-2.021 9.002h5.664v-9.235c0-.593.486-1.074 1.085-1.074.6 0 1.085.481 1.085 1.074v9.235h1.23c.599 0 1.085.481 1.085 1.074zm-33.418-1.959l-4.07 4.026c-.833.826-.937 2.147-.241 3.073 2.089 2.782 4.47 5.501 7.078 8.082 2.608 2.581 5.356 4.937 8.167 7.004.937.689 2.271.586 3.105-.239l4.069-4.027c1.439-1.424 3.683-1.729 5.457-.741l11.588 6.45c1.214.676 2.02 1.853 2.212 3.229.2 1.443-.294 2.872-1.354 3.921l-4.292 4.247C49.815 63.208 47.555 64 44.778 64c-2.5 0-5.419-.641-8.652-1.927-6.528-2.596-13.671-7.536-20.112-13.91C9.573 41.789 4.581 34.721 1.957 28.26c-2.742-6.753-2.583-12.125.449-15.125l4.292-4.247c1.06-1.049 2.504-1.538 3.962-1.339 1.391.189 2.58.986 3.263 2.188l6.518 11.467c.998 1.755.69 3.976-.749 5.4zm-1.142-4.347L12.032 10.79c-.347-.611-.955-1.017-1.668-1.113a2.3715 2.3715 0 00-.336-.023c-.662 0-1.302.265-1.795.753l-.75.741 1.344 2.44c.287.52.093 1.172-.433 1.457-.165.089-.343.131-.519.131-.384 0-.756-.203-.953-.56l-1.039-1.885-1.942 1.922c-2.344 2.32-2.333 6.988.03 12.807 2.517 6.198 7.339 13.011 13.577 19.185 6.239 6.173 13.124 10.945 19.387 13.435 5.88 2.339 10.597 2.35 12.941.03l1.943-1.922-9.319-5.03c-.526-.284-.72-.936-.433-1.457.287-.52.946-.712 1.472-.428l9.879 5.332.75-.742c.576-.57.845-1.339.738-2.11-.098-.705-.508-1.306-1.125-1.65l-11.588-6.45c-.929-.517-2.105-.357-2.858.389l-1.937 1.916 1.904 1.028c.526.283.72.936.433 1.456-.197.358-.569.56-.953.56-.176 0-.354-.042-.519-.131l-2.464-1.33-.533.528c-1.59 1.572-4.14 1.763-5.934.444-2.896-2.129-5.725-4.555-8.407-7.21-2.683-2.654-5.134-5.453-7.286-8.319-1.333-1.775-1.14-4.3.449-5.872l.533-.528-5.387-9.773c-.287-.521-.093-1.173.433-1.457.526-.284 1.186-.092 1.472.429l5.082 9.219 1.936-1.917c.754-.746.915-1.909.393-2.828z"/>
</svg>
